<?xml version="1.0" encoding="utf-8"?>
<!-- Generator: Adobe Illustrator 19.0.0, SVG Export Plug-In . SVG Version: 6.00 Build 0)  -->
<svg version="1.1" id="Layer_1" xmlns="http://www.w3.org/2000/svg" xmlns:xlink="http://www.w3.org/1999/xlink" x="0px" y="0px"
	 viewBox="0 0 149.2 90" style="enable-background:new 0 0 149.2 90;" xml:space="preserve">
<style type="text/css">
	.st0{fill:#FFFFFF;}
</style>
<g>
	<path class="st0" d="M130,0H19.1C8.6,0,0,8.6,0,19.1v51.7C0,81.4,8.6,90,19.2,90H57c3.2,0,6.3-1.6,8.1-4.2l7.6-10.8
		c0.9-1.3,2.9-1.3,3.8,0l7.6,10.8c1.9,2.6,4.9,4.2,8.1,4.2H130c10.6,0,19.2-8.6,19.2-19.2V19.1C149.2,8.6,140.6,0,130,0z M41.5,66.2
		c-12.8,0-23.2-10.4-23.2-23.2c0-12.8,10.4-23.2,23.2-23.2s23.2,10.4,23.2,23.2C64.7,55.8,54.3,66.2,41.5,66.2z M107.7,66.2
		c-12.8,0-23.2-10.4-23.2-23.2c0-12.8,10.4-23.2,23.2-23.2S131,30.1,131,42.9C131,55.8,120.6,66.2,107.7,66.2z"/>
</g>
</svg>
